<mxfile host="app.diagrams.net" modified="2022-09-16T15:14:59.266Z" agent="5.0 (Macintosh; Intel Mac OS X 10_15_7) AppleWebKit/537.36 (KHTML, like Gecko) Chrome/104.0.0.0 Safari/537.36" etag="eIo4Nv8ZV3KB_rjx9V1m" version="15.5.8" type="github">
  <diagram id="lfQ9C44i0eQvOQci8M6N" name="Page-1">
    <mxGraphModel dx="2977" dy="3531" grid="1" gridSize="10" guides="1" tooltips="1" connect="1" arrows="1" fold="1" page="1" pageScale="1" pageWidth="827" pageHeight="1169" math="0" shadow="0">
      <root>
        <mxCell id="0" />
        <mxCell id="1" parent="0" />
        <mxCell id="cj50751WKqJkoFxry8lc-12" value="" style="edgeStyle=orthogonalEdgeStyle;rounded=0;orthogonalLoop=1;jettySize=auto;html=1;fontSize=24;entryX=1.008;entryY=0.364;entryDx=0;entryDy=0;entryPerimeter=0;" edge="1" parent="1" source="cj50751WKqJkoFxry8lc-1" target="cj50751WKqJkoFxry8lc-10">
          <mxGeometry relative="1" as="geometry">
            <mxPoint x="30" y="-1020" as="targetPoint" />
            <Array as="points">
              <mxPoint x="180" y="-774" />
            </Array>
          </mxGeometry>
        </mxCell>
        <mxCell id="cj50751WKqJkoFxry8lc-20" style="edgeStyle=orthogonalEdgeStyle;rounded=0;orthogonalLoop=1;jettySize=auto;html=1;entryX=0.411;entryY=1.029;entryDx=0;entryDy=0;fontSize=24;entryPerimeter=0;" edge="1" parent="1" source="cj50751WKqJkoFxry8lc-1" target="cj50751WKqJkoFxry8lc-17">
          <mxGeometry relative="1" as="geometry" />
        </mxCell>
        <mxCell id="cj50751WKqJkoFxry8lc-1" value="&lt;font style=&quot;font-size: 24px&quot;&gt;cc-app&lt;/font&gt;" style="whiteSpace=wrap;html=1;aspect=fixed;" vertex="1" parent="1">
          <mxGeometry x="160" y="-1110" width="180" height="180" as="geometry" />
        </mxCell>
        <mxCell id="cj50751WKqJkoFxry8lc-5" value="" style="edgeStyle=orthogonalEdgeStyle;rounded=0;orthogonalLoop=1;jettySize=auto;html=1;fontSize=24;" edge="1" parent="1" source="cj50751WKqJkoFxry8lc-4" target="cj50751WKqJkoFxry8lc-1">
          <mxGeometry relative="1" as="geometry" />
        </mxCell>
        <mxCell id="cj50751WKqJkoFxry8lc-4" value="cc-ui" style="rounded=0;whiteSpace=wrap;html=1;fontSize=24;" vertex="1" parent="1">
          <mxGeometry x="400" y="-1110" width="120" height="60" as="geometry" />
        </mxCell>
        <mxCell id="cj50751WKqJkoFxry8lc-6" value="erm" style="whiteSpace=wrap;html=1;aspect=fixed;fontSize=24;" vertex="1" parent="1">
          <mxGeometry x="480" y="-880" width="80" height="80" as="geometry" />
        </mxCell>
        <mxCell id="cj50751WKqJkoFxry8lc-8" value="&lt;span style=&quot;color: rgb(36 , 36 , 36) ; background-color: rgb(255 , 255 , 255)&quot;&gt;&lt;font style=&quot;font-size: 24px&quot;&gt;cc-app-engine&lt;/font&gt;&lt;/span&gt;" style="whiteSpace=wrap;html=1;aspect=fixed;fontSize=24;" vertex="1" parent="1">
          <mxGeometry x="230" y="-830" width="120" height="120" as="geometry" />
        </mxCell>
        <mxCell id="cj50751WKqJkoFxry8lc-9" value="cc-obs" style="whiteSpace=wrap;html=1;aspect=fixed;fontSize=24;" vertex="1" parent="1">
          <mxGeometry x="100" y="-600" width="100" height="100" as="geometry" />
        </mxCell>
        <mxCell id="cj50751WKqJkoFxry8lc-10" value="cc-uniform -workspace&lt;br&gt;&lt;br&gt;ERM-backend" style="whiteSpace=wrap;html=1;aspect=fixed;fontSize=24;" vertex="1" parent="1">
          <mxGeometry x="-270" y="-870" width="180" height="180" as="geometry" />
        </mxCell>
        <mxCell id="cj50751WKqJkoFxry8lc-19" style="edgeStyle=orthogonalEdgeStyle;rounded=0;orthogonalLoop=1;jettySize=auto;html=1;fontSize=24;entryX=0;entryY=0.5;entryDx=0;entryDy=0;" edge="1" parent="1" source="cj50751WKqJkoFxry8lc-13" target="cj50751WKqJkoFxry8lc-17">
          <mxGeometry relative="1" as="geometry">
            <mxPoint x="-450" y="-1200" as="targetPoint" />
          </mxGeometry>
        </mxCell>
        <mxCell id="cj50751WKqJkoFxry8lc-13" value="cc-help-service" style="whiteSpace=wrap;html=1;aspect=fixed;fontSize=24;" vertex="1" parent="1">
          <mxGeometry x="-560" y="-890" width="140" height="140" as="geometry" />
        </mxCell>
        <mxCell id="cj50751WKqJkoFxry8lc-15" style="edgeStyle=orthogonalEdgeStyle;rounded=0;orthogonalLoop=1;jettySize=auto;html=1;entryX=0.5;entryY=0;entryDx=0;entryDy=0;fontSize=24;" edge="1" parent="1" source="cj50751WKqJkoFxry8lc-14" target="cj50751WKqJkoFxry8lc-1">
          <mxGeometry relative="1" as="geometry" />
        </mxCell>
        <mxCell id="cj50751WKqJkoFxry8lc-18" style="edgeStyle=orthogonalEdgeStyle;rounded=0;orthogonalLoop=1;jettySize=auto;html=1;entryX=0.5;entryY=0;entryDx=0;entryDy=0;fontSize=24;" edge="1" parent="1" source="cj50751WKqJkoFxry8lc-14" target="cj50751WKqJkoFxry8lc-17">
          <mxGeometry relative="1" as="geometry" />
        </mxCell>
        <mxCell id="cj50751WKqJkoFxry8lc-14" value="cc-bot-service" style="rounded=0;whiteSpace=wrap;html=1;fontSize=24;" vertex="1" parent="1">
          <mxGeometry x="-10" y="-1340" width="120" height="60" as="geometry" />
        </mxCell>
        <mxCell id="cj50751WKqJkoFxry8lc-17" value="customers-order-exporter" style="rounded=0;whiteSpace=wrap;html=1;fontSize=24;" vertex="1" parent="1">
          <mxGeometry x="-390" y="-1220" width="380" height="60" as="geometry" />
        </mxCell>
        <mxCell id="cj50751WKqJkoFxry8lc-24" style="edgeStyle=orthogonalEdgeStyle;rounded=0;orthogonalLoop=1;jettySize=auto;html=1;entryX=0.25;entryY=0;entryDx=0;entryDy=0;fontSize=24;" edge="1" parent="1" source="cj50751WKqJkoFxry8lc-23" target="cj50751WKqJkoFxry8lc-17">
          <mxGeometry relative="1" as="geometry" />
        </mxCell>
        <mxCell id="cj50751WKqJkoFxry8lc-23" value="&lt;span&gt;obs-api&lt;/span&gt;" style="rounded=0;whiteSpace=wrap;html=1;fontSize=24;" vertex="1" parent="1">
          <mxGeometry x="-650" y="-1470" width="120" height="60" as="geometry" />
        </mxCell>
        <mxCell id="cj50751WKqJkoFxry8lc-26" value="" style="edgeStyle=orthogonalEdgeStyle;rounded=0;orthogonalLoop=1;jettySize=auto;html=1;fontSize=24;" edge="1" parent="1" source="cj50751WKqJkoFxry8lc-25" target="cj50751WKqJkoFxry8lc-1">
          <mxGeometry relative="1" as="geometry" />
        </mxCell>
        <mxCell id="cj50751WKqJkoFxry8lc-25" value="cc-ui" style="rounded=0;whiteSpace=wrap;html=1;fontSize=24;" vertex="1" parent="1">
          <mxGeometry x="430" y="-1020" width="120" height="60" as="geometry" />
        </mxCell>
      </root>
    </mxGraphModel>
  </diagram>
</mxfile>
